<svg id="Layer_1" data-name="Layer 1" xmlns="http://www.w3.org/2000/svg" viewBox="0 0 127.72 115.25"><defs><style>.cls-1{fill:#052547;}</style></defs><title>css</title><path class="cls-1" d="M291.36,303.09c1.64-8.16,3.12-15.82,4.8-23.45a3.38,3.38,0,0,1,2.26-2.2c6.42-.18,12.85-0.1,19.54-0.1-0.31,2-.53,3.63-0.81,5.23-1,5.42-.95,5.37,4.37,7.37,7.33,2.75,14.59,5.69,22,8.28a9.86,9.86,0,0,0,5.8.13c9.77-3,19.46-6.31,29.14-9.59,1.1-.37,2.69-1.16,2.89-2,1.73-7.46,3.2-15,4.85-23H299.09c1.34-7,2.46-13.52,4-20,0.2-.85,2.46-1.73,3.78-1.73,19.73-.11,39.46-0.08,59.19-0.08,7.08,0,14.17-.05,21.25,0,2.19,0,3.5-.36,3.8-3,0.39-3.34,1.32-6.62,2.15-10.54H306.07c1.4-7.12,2.62-13.63,4.06-20.09a3.14,3.14,0,0,1,2.46-1.58q52.55-.1,105.09,0a6.26,6.26,0,0,1,1.4.42q-2.81,14.08-5.62,28.14c-4.27,21.54-8.48,43.1-12.9,64.61a6,6,0,0,1-3.24,3.85c-17.67,6.07-35.41,11.93-53.16,17.78a6,6,0,0,1-3.66.21C324.22,315.69,308,309.44,291.36,303.09Z" transform="translate(-291.36 -206.79)"/></svg>