<svg id="Layer_1" data-name="Layer 1" xmlns="http://www.w3.org/2000/svg" viewBox="0 0 150.01 170.26"><defs><style>.cls-1{fill:#052547;}</style></defs><title>html</title><path class="cls-1" d="M83.21,333.08H233.15c-0.37,4.33-.73,8.56-1.11,12.8q-1.28,14.34-2.58,28.68-1.49,16.63-3,33.26-1.27,14.26-2.52,28.52-1.46,16.38-2.93,32.76c-0.48,5.32-1,10.63-1.41,16a1.52,1.52,0,0,1-1.35,1.59q-29.68,8.27-59.35,16.58a4.47,4.47,0,0,1-2.29-.05q-29.25-8.21-58.5-16.47a1.75,1.75,0,0,1-1.53-1.81c-0.84-9.9-1.75-19.8-2.63-29.7q-1.46-16.29-2.93-32.59-1.28-14.34-2.53-28.68-1.46-16.38-2.94-32.76-1.23-13.75-2.44-27.5A3.21,3.21,0,0,1,83.21,333.08Zm122.06,31.38H111c0.52,6,1,11.88,1.55,17.76,1.08,12.28,2.21,24.56,3.22,36.85,0.14,1.7.53,2.28,2.35,2.27,20.3-.07,40.6,0,60.9,0h2.22l-2.34,24.23c-5.93,1.6-11.8,3.11-17.63,4.8a11.32,11.32,0,0,1-6.64,0c-5.82-1.7-11.7-3.22-17.58-4.81l-1.42-14.84H117.12a4.19,4.19,0,0,0-.1.76c0.73,9.23,1.49,18.46,2.18,27.7a1.52,1.52,0,0,0,1.46,1.51q18.15,5,36.29,10a3.61,3.61,0,0,0,1.82.06c12.21-3.35,24.41-6.75,36.63-10.08a1.63,1.63,0,0,0,1.37-1.75q2.29-25.12,4.64-50.24c0.19-2.07.33-4.14,0.51-6.44H133.31L131.73,383h71.82Z" transform="translate(-83.14 -333.08)"/></svg>