<svg id="Layer_1" data-name="Layer 1" xmlns="http://www.w3.org/2000/svg" viewBox="0 0 232.61 230.45"><defs><style>.cls-1{fill:#052547;}</style></defs><title>jquery</title><path class="cls-1" d="M253.16,205.88c-1,1.89-1.89,3.82-2.93,5.67-8.84,15.71-20.63,28.6-36.18,37.91A102.8,102.8,0,0,1,178,262.51a128.27,128.27,0,0,1-72.49-8.41c-14.8-6.24-27.78-15.34-39.37-26.42a132.36,132.36,0,0,1-27.76-37.27c-8.65-17.55-13.17-36.08-12.37-55.7A93.48,93.48,0,0,1,49.1,76.21a62.79,62.79,0,0,1,6.53-6.6,5.25,5.25,0,0,1-.39,1C50.5,78,48.75,86.45,47.3,94.86c-6.29,36.47,4.57,67.86,29.27,94.66,21.45,23.27,48.24,37.21,79.31,42.86,14.79,2.69,29.72,3.17,44.51,0a108.8,108.8,0,0,0,50.37-25c0.68-.6,1.31-1.25,2-1.87Z" transform="translate(-25.88 -33.97)"/><path class="cls-1" d="M258.49,146.18A56.75,56.75,0,0,1,250.61,160c-10.06,13-23.45,20.93-39.19,24.94a99.53,99.53,0,0,1-50.35,0c-11.64-3-21.89-9-31.15-16.55-14.6-12-25.67-26.58-31.54-44.66-7.44-22.94-4.92-44.73,8.63-65,2.25-3.36,4.66-6.6,7-9.88a16.3,16.3,0,0,1,2.39-2.69c-0.6,1.29-1.18,2.58-1.8,3.86-5.33,10.94-6.59,22.53-5.48,34.49a86.21,86.21,0,0,0,23.21,51.65c15.85,17.18,35.29,28.13,58.51,31.69,24.43,3.74,45.89-3.14,64.57-19.11a25.86,25.86,0,0,0,2.55-2.92Z" transform="translate(-25.88 -33.97)"/><path class="cls-1" d="M256.57,96.84c-1.4,1.73-2.69,3.57-4.22,5.18a86.77,86.77,0,0,1-18,14.07c-4.84,2.94-10.15,4.05-15.64,4.67-9.73,1.09-19.3.38-28.44-3.26-15-6-25.91-16.44-32.09-31.42-5.95-14.42-5.16-28.81,1.37-42.89A29,29,0,0,1,166.41,34c-0.73,3.1-1.48,6-2.1,9-3.38,16.07.95,30.28,10.27,43.41,5.67,8,13.59,13,22,17.29,15.57,7.94,31.31,7.49,46.92,0,4.35-2.09,8.51-4.6,12.75-6.92Z" transform="translate(-25.88 -33.97)"/></svg>