<svg id="Layer_1" data-name="Layer 1" xmlns="http://www.w3.org/2000/svg" viewBox="0 0 145.97 135.82"><defs><style>.cls-1{fill:#052547;}</style></defs><title>js</title><path class="cls-1" d="M459.07,34.69V156.85H336.92V34.69H459.07m6.84-6.61H330.08V163.9H465.91V28.08ZM429.53,97.75l-3.09-1.32c-5.51-2.43-8.16-3.75-8.16-7.94,0-3.09,2.43-5.51,6.39-5.51,3.75,0,6,1.54,8.38,5.51l10.14-6.61c-4.19-7.5-10.14-10.36-18.3-10.36-11.69,0-19.18,7.5-19.18,17,0,10.58,6.39,15.66,15.66,19.84l3.09,1.32c5.73,2.43,9.48,4.19,9.48,8.82,0,3.75-3.31,6.61-8.82,6.61-6.61,0-10.14-3.31-12.79-8.16l-10.58,6c3.75,7.5,11.69,13.23,23.81,13.23,12.35,0,21.61-6.61,21.61-18.08-0.22-10.58-6.39-15.43-17.64-20.29h0Zm-34.84,19.18V72.4H381.46v44.32c0,6.61-2.65,8.16-7.06,8.16s-6.39-3.09-8.38-6.61l-10.8,6.61c3.09,6.61,9.26,11.91,19.62,11.91C386.53,136.34,394.69,130.39,394.69,116.94Z" transform="translate(-319.94 -28.08)"/><circle class="cls-1" cx="13.45" cy="94.81" r="13.45"/></svg>