<svg id="Layer_1" data-name="Layer 1" xmlns="http://www.w3.org/2000/svg" viewBox="0 0 156.9 331.07"><defs><style>.cls-1{fill:#052547;}.cls-2{fill:none;stroke:#052547;stroke-miterlimit:10;stroke-width:6px;}</style></defs><title>rn</title><circle class="cls-1" cx="79.34" cy="164.49" r="10.73"/><ellipse class="cls-2" cx="853.17" cy="296.7" rx="56.68" ry="21.62" transform="translate(-604.27 755) rotate(-60)"/><ellipse class="cls-2" cx="79.34" cy="164.49" rx="56.68" ry="21.62"/><ellipse class="cls-2" cx="853.2" cy="296.77" rx="21.62" ry="56.68" transform="translate(-807.99 334.14) rotate(-30)"/><path class="cls-1" d="M930.79,297.78q0,69.12,0,138.23c0,6.43-1.25,12.42-5.32,17.56a24.16,24.16,0,0,1-19.69,9.66c-35.66.06-71.32,0.11-107,0C784.66,463.16,774,452.07,774,437.9q0-139.48-.13-279c0-13.29,9.38-26.77,26.39-26.72,34.74,0.11,69.49,0,104.24.07,13.54,0,23.4,8.07,25.73,20.55a41,41,0,0,1,.5,7.46Q930.81,229,930.79,297.78Zm-11.89,118.7V180.25H786.15V416.48H918.89Z" transform="translate(-773.91 -132.22)"/></svg>