<?xml version="1.0" encoding="utf-8"?>
<!-- Generator: Adobe Illustrator 19.2.1, SVG Export Plug-In . SVG Version: 6.00 Build 0)  -->
<svg version="1.1" id="Layer_1" xmlns="http://www.w3.org/2000/svg" xmlns:xlink="http://www.w3.org/1999/xlink" x="0px" y="0px"
	 viewBox="0 0 156.9 331.1" style="enable-background:new 0 0 156.9 331.1;" xml:space="preserve">
<style type="text/css">
	.st0{fill:#052547;}
	.st1{fill:none;stroke:#052547;stroke-width:6;stroke-miterlimit:10;}
</style>
<title>rn</title>
<circle class="st0" cx="79.3" cy="164.5" r="10.7"/>
<ellipse transform="matrix(0.5 -0.866 0.866 0.5 -102.7826 150.8988)" class="st1" cx="79.3" cy="164.5" rx="56.7" ry="21.6"/>
<ellipse class="st1" cx="79.3" cy="164.5" rx="56.7" ry="21.6"/>
<ellipse transform="matrix(0.866 -0.5 0.5 0.866 -71.6658 61.7125)" class="st1" cx="79.3" cy="164.6" rx="21.6" ry="56.7"/>
<path class="st0" d="M156.9,165.6c0,46.1,0,92.2,0,138.2c0,6.4-1.2,12.4-5.3,17.6c-4.6,6.2-12,9.8-19.7,9.7
	c-35.7,0.1-71.3,0.1-107,0C10.8,331,0.1,319.9,0.1,305.8c0-93,0-186-0.1-279C0,13.4,9.3-0.1,26.4,0c34.7,0.1,69.4,0,104.2,0
	c13.5,0,23.4,8.1,25.7,20.6c0.4,2.5,0.6,5,0.5,7.5C156.9,73.9,156.9,119.7,156.9,165.6z M145,284.3V48H12.2v236.2L145,284.3
	L145,284.3z"/>
</svg>
